<?xml version="1.0" encoding="UTF-8"?>
<svg xmlns="http://www.w3.org/2000/svg" xmlns:xlink="http://www.w3.org/1999/xlink" width="96pt" height="33pt" viewBox="0 0 96 33" version="1.1">
    <g id="surface1">
        <path style=" stroke:none;fill-rule:nonzero;fill:rgb(40%,20%,40%);fill-opacity:1;" d="M 15.828125 13.886719 L 12.988281 17.214844 C 12.988281 17.214844 10.742188 19.84375 10.632812 19.976562 L 15.828125 19.976562 Z M 15.828125 13.886719 "/>
        <path style=" stroke:none;fill-rule:nonzero;fill:rgb(40%,20%,40%);fill-opacity:1;" d="M 0.00390625 32.625 L 22.878906 32.625 L 22.878906 0.0273438 L 0.00390625 0.0273438 Z M 1.300781 27.292969 L 1.332031 27.292969 C 2.839844 27.195312 3.773438 26.25 4.839844 25.027344 L 16.402344 11.796875 L 18.226562 11.796875 L 18.226562 25.882812 C 18.226562 26.773438 18.613281 27.289062 20.582031 27.289062 L 20.636719 27.289062 L 20.496094 27.855469 L 12.824219 27.855469 L 12.960938 27.289062 L 12.988281 27.289062 C 15.121094 27.289062 15.917969 26.800781 15.917969 25.480469 L 15.917969 21.058594 L 9.5625 21.058594 L 5.839844 25.28125 C 5.5 25.667969 5.332031 26.023438 5.332031 26.320312 C 5.332031 26.421875 5.347656 26.515625 5.386719 26.605469 C 5.578125 27.035156 6.238281 27.292969 7.148438 27.292969 L 7.746094 27.292969 L 7.609375 27.855469 L 1.167969 27.855469 Z M 24.367188 32.625 L 47.242188 32.625 L 47.242188 0.0273438 L 24.367188 0.0273438 Z M 37.042969 12.070312 C 39.34375 12.070312 40.761719 12.519531 41.707031 12.8125 C 42.175781 12.964844 42.515625 13.066406 42.78125 13.066406 C 43.097656 13.066406 43.210938 12.984375 43.246094 12.9375 L 43.253906 12.917969 L 43.726562 12.917969 L 43.96875 16.597656 L 43.378906 16.597656 L 43.367188 16.566406 C 42.460938 14.230469 40.097656 12.773438 37.207031 12.773438 C 32.8125 12.769531 29.863281 15.625 29.859375 19.878906 C 29.839844 21.925781 30.632812 23.898438 32.070312 25.363281 C 33.507812 26.8125 35.429688 27.613281 37.488281 27.617188 C 40.375 27.621094 42.601562 26.398438 44.101562 23.980469 L 44.113281 23.964844 L 44.710938 23.964844 L 44.695312 24.019531 C 44.324219 25.160156 43.589844 26.683594 42.9375 27.644531 L 42.925781 27.664062 L 42.902344 27.664062 C 42.066406 27.554688 41.371094 27.703125 40.484375 27.890625 C 39.261719 28.179688 38.007812 28.328125 36.75 28.328125 C 33.730469 28.324219 31.097656 27.34375 29.335938 25.5625 C 27.957031 24.191406 27.191406 22.320312 27.210938 20.375 C 27.222656 15.558594 31.351562 12.066406 37.042969 12.070312 Z M 48.722656 32.625 L 71.601562 32.625 L 71.601562 0.0273438 L 48.722656 0.0273438 Z M 51.898438 27.300781 L 52.714844 27.300781 C 54.847656 27.300781 55.226562 26.777344 55.226562 25.308594 L 55.226562 14.863281 C 55.226562 13.519531 54.917969 12.925781 53.089844 12.925781 L 52.453125 12.925781 L 52.453125 12.367188 L 65.605469 12.367188 L 65.824219 15.894531 L 65.257812 15.894531 L 65.246094 15.859375 C 64.898438 13.765625 64.230469 13.34375 63.273438 13.34375 L 57.578125 13.34375 L 57.578125 19.347656 L 62.40625 19.347656 C 63.417969 19.347656 63.820312 18.871094 63.945312 17.527344 L 63.949219 17.492188 L 64.546875 17.492188 L 64.546875 22.277344 L 63.949219 22.277344 L 63.945312 22.242188 C 63.730469 20.503906 63.234375 20.320312 62.132812 20.320312 L 57.578125 20.320312 L 57.578125 25.554688 C 57.578125 26.675781 58.035156 26.875 59.003906 26.875 L 63.195312 26.875 C 65.109375 26.875 65.652344 26.179688 66.316406 24.105469 L 66.328125 24.078125 L 66.890625 24.078125 L 66.453125 27.851562 L 51.898438 27.851562 Z M 87.507812 25.15625 L 85.714844 23.523438 C 84.847656 22.710938 83.910156 21.980469 82.917969 21.332031 L 82.542969 21.347656 L 81.082031 21.386719 C 80.539062 21.386719 80.203125 21.367188 79.820312 21.34375 L 79.738281 21.339844 L 79.738281 25.480469 C 79.738281 26.851562 80.257812 27.289062 81.875 27.289062 L 82.550781 27.289062 L 82.550781 27.847656 L 74.761719 27.859375 L 74.761719 27.300781 L 75.269531 27.300781 C 76.921875 27.296875 77.398438 26.851562 77.398438 25.285156 L 77.386719 14.859375 C 77.382812 13.359375 76.933594 12.925781 75.378906 12.925781 L 74.746094 12.925781 L 74.742188 12.367188 L 74.785156 12.367188 C 75.234375 12.367188 76.160156 12.316406 77.0625 12.265625 L 78.238281 12.210938 C 79.339844 12.160156 79.890625 12.136719 81.644531 12.132812 C 84.554688 12.128906 86.722656 12.765625 87.925781 13.972656 C 88.628906 14.679688 88.988281 15.554688 88.988281 16.574219 L 88.988281 16.578125 C 88.988281 18.453125 87.628906 19.984375 85.425781 20.605469 C 86.453125 21.339844 87.289062 22.0625 88.472656 23.128906 L 90.621094 25.082031 C 92.398438 26.691406 94.046875 27.457031 95.964844 27.566406 L 95.964844 8.859375 L 87.070312 8.859375 L 87.070312 0.0234375 L 73.09375 0.0234375 L 73.09375 32.625 L 95.964844 32.625 L 95.964844 28.101562 C 91.195312 28.300781 89.929688 27.34375 87.507812 25.15625 Z M 87.507812 25.15625 "/>
        <path style=" stroke:none;fill-rule:nonzero;fill:rgb(40%,20%,40%);fill-opacity:1;" d="M 81.042969 12.78125 C 80.554688 12.78125 80.230469 12.785156 79.816406 12.824219 L 79.828125 20.695312 C 80.261719 20.738281 80.597656 20.742188 81.015625 20.734375 L 81.382812 20.734375 C 83.164062 20.734375 84.476562 20.320312 85.277344 19.511719 C 85.933594 18.855469 86.257812 17.917969 86.253906 16.730469 C 86.246094 14.035156 84.59375 12.78125 81.042969 12.78125 Z M 95.996094 27.570312 L 95.953125 27.566406 L 95.953125 28.101562 L 96 28.101562 Z M 88.324219 0.0273438 L 88.324219 7.710938 L 95.953125 7.710938 Z M 88.324219 0.0273438 "/>
    </g>
</svg>
