<svg id="Layer_1" data-name="Layer 1" xmlns="http://www.w3.org/2000/svg" width="20" height="20" viewBox="0 0 20 20"><defs><style>.cls-1{fill:#fff;}</style></defs><path class="cls-1" d="M8.08,3.49H5.64V1.06a1.06,1.06,0,1,0-2.11,0V3.49H1.09a1.06,1.06,0,0,0,0,2.12H3.53V8A1.06,1.06,0,1,0,5.64,8V5.61H8.08a1.06,1.06,0,1,0,0-2.12Z"/><path class="cls-1" d="M7.81,12a1.1,1.1,0,0,0-.75-.3,1.05,1.05,0,0,0-.75.3L4.59,13.74,2.87,12a1.08,1.08,0,0,0-.75-.3,1.07,1.07,0,0,0-.75.3,1.05,1.05,0,0,0,0,1.5L3.1,15.24,1.38,17a1.05,1.05,0,0,0,1.49,1.49l1.72-1.72,1.72,1.72a1.07,1.07,0,0,0,1.5,0,1.06,1.06,0,0,0,0-1.49L6.09,15.24l1.72-1.72A1.07,1.07,0,0,0,7.81,12Z"/><path class="cls-1" d="M11.92,5.61h7a1.06,1.06,0,0,0,0-2.12h-7a1.06,1.06,0,0,0,0,2.12Z"/><path class="cls-1" d="M15.41,17.47a1.27,1.27,0,1,0,1.26,1.27A1.27,1.27,0,0,0,15.41,17.47Z"/><path class="cls-1" d="M18.91,14.18h-7a1.05,1.05,0,0,0-1.06,1.06,1.07,1.07,0,0,0,1.06,1.06h7a1.06,1.06,0,0,0,0-2.12Z"/><path class="cls-1" d="M14.14,11.74a1.27,1.27,0,1,0,1.27-1.26A1.26,1.26,0,0,0,14.14,11.74Z"/></svg>