<svg id="Layer_1" data-name="Layer 1" xmlns="http://www.w3.org/2000/svg" width="20" height="20" viewBox="0 0 20 20"><defs><style>.cls-1{fill:#591f56;}.cls-2{fill:#fff;}</style></defs><path class="cls-1" d="M16,2V15.48a10.19,10.19,0,0,0-5.26,1.63v-13A7.87,7.87,0,0,1,16,2Z"/><path class="cls-1" d="M18.5,18H12.17A9.45,9.45,0,0,1,16.76,17a.75.75,0,0,0,.75-.75V4.55h1Z"/><path class="cls-1" d="M9.25,4.08v13A10.23,10.23,0,0,0,4,15.48V2A7.9,7.9,0,0,1,9.25,4.08Z"/><path class="cls-1" d="M1.5,4.55h1V16.2a.75.75,0,0,0,.75.75A9.45,9.45,0,0,1,7.83,18H1.5Z"/><path class="cls-2" d="M19.25,3.05H17.51V1.25A.76.76,0,0,0,16.76.5,10,10,0,0,0,10,2.73,10,10,0,0,0,3.24.5a.76.76,0,0,0-.75.75v1.8H.75A.74.74,0,0,0,0,3.8v15a.75.75,0,0,0,.75.75h18.5a.76.76,0,0,0,.75-.75V3.8A.75.75,0,0,0,19.25,3.05ZM16,2V15.48a10.19,10.19,0,0,0-5.26,1.63v-13A7.87,7.87,0,0,1,16,2ZM9.25,4.08v13A10.23,10.23,0,0,0,4,15.48V2A7.9,7.9,0,0,1,9.25,4.08ZM1.5,4.55h1V16.2a.75.75,0,0,0,.75.75A9.45,9.45,0,0,1,7.83,18H1.5ZM18.5,18H12.17A9.45,9.45,0,0,1,16.76,17a.75.75,0,0,0,.75-.75V4.55h1Z"/><path class="cls-2" d="M5.63,6a9.69,9.69,0,0,1,1.68.53.48.48,0,0,0,.2,0A.5.5,0,0,0,8,6.26a.51.51,0,0,0-.26-.66A10.3,10.3,0,0,0,5.83,5a.51.51,0,0,0-.59.39A.49.49,0,0,0,5.63,6Z"/><path class="cls-2" d="M5.63,9.47A8.23,8.23,0,0,1,7.31,10a.48.48,0,0,0,.2,0,.5.5,0,0,0,.2-1,10.3,10.3,0,0,0-1.88-.59.5.5,0,0,0-.2,1Z"/><path class="cls-2" d="M7.71,12.56A9,9,0,0,0,5.83,12a.5.5,0,1,0-.2,1,9.69,9.69,0,0,1,1.68.53.48.48,0,0,0,.2,0,.5.5,0,0,0,.46-.3A.49.49,0,0,0,7.71,12.56Z"/><path class="cls-2" d="M12.49,6.56a.48.48,0,0,0,.2,0A9.69,9.69,0,0,1,14.37,6a.5.5,0,0,0,.39-.59.52.52,0,0,0-.6-.39,10.45,10.45,0,0,0-1.87.59.51.51,0,0,0-.26.66A.5.5,0,0,0,12.49,6.56Z"/><path class="cls-2" d="M12.49,10a.48.48,0,0,0,.2,0,8.23,8.23,0,0,1,1.68-.53.51.51,0,0,0,.39-.59.51.51,0,0,0-.6-.39,10.45,10.45,0,0,0-1.87.59.5.5,0,0,0,.2,1Z"/><path class="cls-2" d="M12.49,13.51a.48.48,0,0,0,.2,0,9.69,9.69,0,0,1,1.68-.53.5.5,0,0,0,.39-.59.51.51,0,0,0-.6-.38,9.05,9.05,0,0,0-1.87.59.49.49,0,0,0-.26.65A.5.5,0,0,0,12.49,13.51Z"/></svg>